<svg xmlns="http://www.w3.org/2000/svg" xmlns:xlink="http://www.w3.org/1999/xlink" contentStyleType="text/css" data-diagram-type="CLASS" height="529px" preserveAspectRatio="none" style="width:649px;height:529px;background:#FFFFFF;" version="1.1" viewBox="0 0 649 529" width="649px" zoomAndPan="magnify"><?plantuml 1.2026.4beta2?><defs/><g><!--class Logs--><g class="entity" data-qualified-name="Logs" data-source-line="10" id="ent0002"><rect fill="#FFFFFF" height="39.9688" rx="2.5" ry="2.5" style="stroke:#000000;stroke-width:0.5;" width="33.8965" x="301.68" y="474.87"/><text fill="#000000" font-family="sans-serif" font-size="12" lengthAdjust="spacing" textLength="27.8965" x="304.68" y="491.0087">Logs</text><line style="stroke:#000000;stroke-width:0.5;" x1="302.68" x2="334.5765" y1="498.8387" y2="498.8387"/><line style="stroke:#000000;stroke-width:0.5;" x1="302.68" x2="334.5765" y1="506.8387" y2="506.8387"/></g><!--class Settings--><g class="entity" data-qualified-name="Settings" data-source-line="11" id="ent0003"><rect fill="#FFFFFF" height="39.9688" rx="2.5" ry="2.5" style="stroke:#000000;stroke-width:0.5;" width="55.2188" x="68.02" y="357.9"/><text fill="#000000" font-family="sans-serif" font-size="12" lengthAdjust="spacing" textLength="49.2188" x="71.02" y="374.0387">Settings</text><line style="stroke:#000000;stroke-width:0.5;" x1="69.02" x2="122.2388" y1="381.8688" y2="381.8688"/><line style="stroke:#000000;stroke-width:0.5;" x1="69.02" x2="122.2388" y1="389.8688" y2="389.8688"/></g><!--class DBWorker--><g class="entity" data-qualified-name="DBWorker" data-source-line="12" id="ent0004"><rect fill="#FFFFFF" height="39.9688" rx="2.5" ry="2.5" style="stroke:#000000;stroke-width:0.5;" width="66.8789" x="170.19" y="357.9"/><text fill="#000000" font-family="sans-serif" font-size="12" lengthAdjust="spacing" textLength="60.8789" x="173.19" y="374.0387">DBWorker</text><line style="stroke:#000000;stroke-width:0.5;" x1="171.19" x2="236.0689" y1="381.8688" y2="381.8688"/><line style="stroke:#000000;stroke-width:0.5;" x1="171.19" x2="236.0689" y1="389.8688" y2="389.8688"/></g><!--class TcpClient--><g class="entity" data-qualified-name="TcpClient" data-source-line="13" id="ent0005"><rect fill="#FFFFFF" height="39.9688" rx="2.5" ry="2.5" style="stroke:#000000;stroke-width:0.5;" width="62.2852" x="295.49" y="7"/><text fill="#000000" font-family="sans-serif" font-size="12" lengthAdjust="spacing" textLength="56.2852" x="298.49" y="23.1387">TcpClient</text><line style="stroke:#000000;stroke-width:0.5;" x1="296.49" x2="356.7752" y1="30.9688" y2="30.9688"/><line style="stroke:#000000;stroke-width:0.5;" x1="296.49" x2="356.7752" y1="38.9688" y2="38.9688"/></g><!--class TcpServer--><g class="entity" data-qualified-name="TcpServer" data-source-line="14" id="ent0006"><rect fill="#FFFFFF" height="39.9688" rx="2.5" ry="2.5" style="stroke:#000000;stroke-width:0.5;" width="66.8965" x="293.18" y="123.96"/><text fill="#000000" font-family="sans-serif" font-size="12" lengthAdjust="spacing" textLength="60.8965" x="296.18" y="140.0987">TcpServer</text><line style="stroke:#000000;stroke-width:0.5;" x1="294.18" x2="359.0765" y1="147.9287" y2="147.9287"/><line style="stroke:#000000;stroke-width:0.5;" x1="294.18" x2="359.0765" y1="155.9287" y2="155.9287"/></g><!--class ClientConnection--><g class="entity" data-qualified-name="ClientConnection" data-source-line="15" id="ent0007"><rect fill="#FFFFFF" height="39.9688" rx="2.5" ry="2.5" style="stroke:#000000;stroke-width:0.5;" width="108.6387" x="272.31" y="240.93"/><text fill="#000000" font-family="sans-serif" font-size="12" lengthAdjust="spacing" textLength="102.6387" x="275.31" y="257.0687">ClientConnection</text><line style="stroke:#000000;stroke-width:0.5;" x1="273.31" x2="379.9487" y1="264.8987" y2="264.8987"/><line style="stroke:#000000;stroke-width:0.5;" x1="273.31" x2="379.9487" y1="272.8987" y2="272.8987"/></g><!--link Settings to Logs--><g class="link" data-entity-1="ent0003" data-entity-2="ent0002" data-link-type="dependency" data-source-line="17" id="lnk8"><path codeLine="17" d="M96.82,398.34 C98.76,413.12 103.79,432.9 116.63,444.87 C143.75,470.15 251.5355,485.6721 295.3555,491.1021" fill="none" id="Settings-to-Logs" style="stroke:#000000;stroke-width:1;"/><polygon fill="#000000" points="301.31,491.84,292.8702,486.7636,296.348,491.2251,291.8864,494.7029,301.31,491.84" style="stroke:#000000;stroke-width:1;"/><text fill="#000000" font-family="sans-serif" font-size="13" lengthAdjust="spacing" textLength="78.1968" x="117.63" y="440.9369">&#1080;&#1089;&#1087;&#1086;&#1083;&#1100;&#1079;&#1091;&#1077;&#1090;</text></g><!--link DBWorker to Logs--><g class="link" data-entity-1="ent0004" data-entity-2="ent0002" data-link-type="dependency" data-source-line="18" id="lnk9"><path codeLine="18" d="M201.6,398.34 C201.14,412.55 202.8,431.58 212.63,444.87 C234.2,474.05 271.5451,485.2004 295.5951,489.9804" fill="none" id="DBWorker-to-Logs" style="stroke:#000000;stroke-width:1;"/><polygon fill="#000000" points="301.48,491.15,293.4324,485.4723,296.5759,490.1753,291.8729,493.3188,301.48,491.15" style="stroke:#000000;stroke-width:1;"/><text fill="#000000" font-family="sans-serif" font-size="13" lengthAdjust="spacing" textLength="78.1968" x="213.63" y="440.9369">&#1080;&#1089;&#1087;&#1086;&#1083;&#1100;&#1079;&#1091;&#1077;&#1090;</text></g><!--link TcpClient to Logs--><g class="link" data-entity-1="ent0005" data-entity-2="ent0002" data-link-type="dependency" data-source-line="19" id="lnk10"><path codeLine="19" d="M357.85,29.61 C420.3,34.72 554.63,55.84 554.63,142.95 C554.63,142.95 554.63,142.95 554.63,378.89 C554.63,476.19 396.4747,490.9081 341.9747,493.1981" fill="none" id="TcpClient-to-Logs" style="stroke:#000000;stroke-width:1;"/><polygon fill="#000000" points="335.98,493.45,345.14,497.0686,340.9756,493.2401,344.8041,489.0757,335.98,493.45" style="stroke:#000000;stroke-width:1;"/><text fill="#000000" font-family="sans-serif" font-size="13" lengthAdjust="spacing" textLength="78.1968" x="555.63" y="265.4869">&#1080;&#1089;&#1087;&#1086;&#1083;&#1100;&#1079;&#1091;&#1077;&#1090;</text></g><!--link TcpServer to Logs--><g class="link" data-entity-1="ent0006" data-entity-2="ent0002" data-link-type="dependency" data-source-line="20" id="lnk11"><path codeLine="20" d="M360.36,157.27 C376.71,165.12 394.88,177.04 404.63,193.93 C449.94,272.48 444.44,313.73 410.63,397.87 C395.57,435.35 362.9848,462.942 340.7848,478.872" fill="none" id="TcpServer-to-Logs" style="stroke:#000000;stroke-width:1;"/><polygon fill="#000000" points="335.91,482.37,345.5542,480.3729,339.9724,479.455,340.8902,473.8731,335.91,482.37" style="stroke:#000000;stroke-width:1;"/><text fill="#000000" font-family="sans-serif" font-size="13" lengthAdjust="spacing" textLength="78.1968" x="436.63" y="323.9669">&#1080;&#1089;&#1087;&#1086;&#1083;&#1100;&#1079;&#1091;&#1077;&#1090;</text></g><!--link ClientConnection to Logs--><g class="link" data-entity-1="ent0007" data-entity-2="ent0002" data-link-type="dependency" data-source-line="21" id="lnk12"><path codeLine="21" d="M325.96,281.29 C324.45,324.95 321.0169,424.6136 319.5069,468.3736" fill="none" id="ClientConnection-to-Logs" style="stroke:#000000;stroke-width:1;"/><polygon fill="#000000" points="319.3,474.37,323.608,465.5133,319.4724,469.373,315.6128,465.2374,319.3,474.37" style="stroke:#000000;stroke-width:1;"/><text fill="#000000" font-family="sans-serif" font-size="13" lengthAdjust="spacing" textLength="78.1968" x="323.63" y="382.4569">&#1080;&#1089;&#1087;&#1086;&#1083;&#1100;&#1079;&#1091;&#1077;&#1090;</text></g><!--reverse link TcpServer to ClientConnection--><g class="link" data-entity-1="ent0006" data-entity-2="ent0007" data-link-type="composition" data-source-line="23" id="lnk13"><path codeLine="23" d="M326.63,176.19 C326.63,197.42 326.63,219.36 326.63,240.61" fill="none" id="TcpServer-backto-ClientConnection" style="stroke:#000000;stroke-width:1;"/><polygon fill="#000000" points="326.63,164.19,322.63,170.19,326.63,176.19,330.63,170.19,326.63,164.19" style="stroke:#000000;stroke-width:1;"/><text fill="#000000" font-family="sans-serif" font-size="13" lengthAdjust="spacing" textLength="68.0723" x="327.63" y="206.9969">&#1089;&#1086;&#1076;&#1077;&#1088;&#1078;&#1080;&#1090;</text></g><!--link TcpServer to DBWorker--><g class="link" data-entity-1="ent0006" data-entity-2="ent0004" data-link-type="dependency" data-source-line="24" id="lnk14"><path codeLine="24" d="M292.86,157.19 C259.03,171.48 208.88,198.7 186.63,240.93 C166.78,278.6 180.6802,324.5266 192.2302,352.0766" fill="none" id="TcpServer-to-DBWorker" style="stroke:#000000;stroke-width:1;"/><polygon fill="#000000" points="194.55,357.61,194.7592,347.7634,192.6168,352.9988,187.3814,350.8564,194.55,357.61" style="stroke:#000000;stroke-width:1;"/><text fill="#000000" font-family="sans-serif" font-size="13" lengthAdjust="spacing" textLength="66.3013" x="187.63" y="265.4869">&#1074;&#1099;&#1079;&#1099;&#1074;&#1072;&#1077;&#1090;</text></g><!--link ClientConnection to DBWorker--><g class="link" data-entity-1="ent0007" data-entity-2="ent0004" data-link-type="dependency" data-source-line="25" id="lnk15"><path codeLine="25" d="M271.93,278.49 C254.8,286.01 237.13,296.52 224.63,310.9 C213.27,323.97 209.0404,337.2923 206.6404,351.6323" fill="none" id="ClientConnection-to-DBWorker" style="stroke:#000000;stroke-width:1;"/><polygon fill="#000000" points="205.65,357.55,211.0807,349.3337,206.4753,352.6186,203.1905,348.0132,205.65,357.55" style="stroke:#000000;stroke-width:1;"/><text fill="#000000" font-family="sans-serif" font-size="13" lengthAdjust="spacing" textLength="66.3013" x="225.63" y="323.9669">&#1074;&#1099;&#1079;&#1099;&#1074;&#1072;&#1077;&#1090;</text></g><!--link TcpClient to TcpServer--><g class="link" data-entity-1="ent0005" data-entity-2="ent0006" data-link-type="dependency" data-source-line="27" id="lnk16"><path codeLine="27" d="M326.63,47.22 C326.63,68.45 326.63,96.4 326.63,117.64" fill="none" id="TcpClient-to-TcpServer" style="stroke:#000000;stroke-width:1;stroke-dasharray:7,7;"/><polygon fill="#000000" points="326.63,123.64,330.63,114.64,326.63,118.64,322.63,114.64,326.63,123.64" style="stroke:#000000;stroke-width:1;"/><text fill="#000000" font-family="sans-serif" font-size="13" lengthAdjust="spacing" textLength="110.7158" x="327.63" y="90.0269">&#1087;&#1086;&#1076;&#1082;&#1083;&#1102;&#1095;&#1072;&#1077;&#1090;&#1089;&#1103; &#1082;</text></g><!--link TcpClient to DBWorker--><g class="link" data-entity-1="ent0005" data-entity-2="ent0004" data-link-type="dependency" data-source-line="28" id="lnk17"><path codeLine="28" d="M295.23,35.54 C234.08,52.15 100.26,98.23 45.63,193.93 C6,263.37 107.5232,327.9895 164.7932,357.9395" fill="none" id="TcpClient-to-DBWorker" style="stroke:#000000;stroke-width:1;stroke-dasharray:7,7;"/><polygon fill="#000000" points="170.11,360.72,163.9884,353.0047,165.6793,358.4029,160.2811,360.0938,170.11,360.72" style="stroke:#000000;stroke-width:1;"/><text fill="#000000" font-family="sans-serif" font-size="13" lengthAdjust="spacing" textLength="153.8545" x="46.63" y="206.9969">&#1080;&#1084;&#1080;&#1090;&#1080;&#1088;&#1091;&#1077;&#1090; &#1080;&#1085;&#1090;&#1077;&#1088;&#1092;&#1077;&#1081;&#1089;</text></g><?plantuml-src ZL7HIiCm57tFL-HPw50VVHXi5K7mhOBFNHgsq9gCD7EW2AiAFapqLsGudLEtNxZv8s-RhIiLdOL0xxddd7jkqXCHfqnebd2InaBsGnsUKvQ4QTeoHelEmF1ZfcGWBZdThLFe5Q7ujKCMTxKQoCXNYT9qs1E6kuxI4TSExIH8Az2MrcfO1u-KDCMKlNroJOZpFr7TTFKRS6E4BCl3zfdICTUhyfJr_KHmQJPrmFL5sNTDNqd9cH5A4hBsevxNBERG0mepcy4I5l1X7-3DtiBKtf3rfAt4CiD_c2xTLcOzzrP1nNl7ytxiZJ8KBU05oIDuHOjwcd9T732nOpGUmmIUVq_pbw1o9ur6S_CgENTPn9XZ-aTxx_WsiqyKvZLLTS0CFlFCU4PkuHpwGW3NiNSmXNURVGC0?></g></svg>